# xmcd
#
# Track frame offsets: 
#        150
#        25167
#        49455
#        70720
#        83302
#        99977
#        112672
#        135742
#        152500
#        168457
#        179960
#
# Disc length: 2822 seconds
#
# Revision: 3
# Processed by: cddbd v1.5.2PL0 Copyright (c) Steve Scherf et al.
# Submitted via: ExactAudioCopyFreeDBPlugin 1.0
#
DISCID=840b040b
DTITLE=Johnny Winter - Second Winter
DYEAR=1969
DGENRE=Blues
TTITLE0=Memory Pain
TTITLE1=I'm Not Sure
TTITLE2=The Good Love
TTITLE3=Slippin' And Slidin'
TTITLE4=Miss Ann
TTITLE5=Johnny B. Goode
TTITLE6=Highway 61 Revisited
TTITLE7=I Love Everybody
TTITLE8=Hustled Down In Texas
TTITLE9=I Hate Everybody
TTITLE10=Fast Life Rider
EXTD=
EXTT0=
EXTT1=
EXTT2=
EXTT3=
EXTT4=
EXTT5=
EXTT6=
EXTT7=
EXTT8=
EXTT9=
EXTT10=
PLAYORDER=
